<svg width="685" height="595" xmlns="http://www.w3.org/2000/svg" xmlns:xlink="http://www.w3.org/1999/xlink" xml:space="preserve" overflow="hidden"><defs><clipPath id="clip0"><rect x="739" y="1326" width="685" height="595"/></clipPath></defs><g clip-path="url(#clip0)" transform="translate(-739 -1326)"><rect x="739" y="1326" width="684" height="594" fill="#FFFFFF"/><g><path d="M924 1519 920 1519 920 1564 924 1564ZM924 1630 920 1630 920 1675 924 1675Z" fill="#C9C9C9"/></g><g><path d="M993 1519 924 1519 924 1564 993 1564ZM1064 1630 924 1630 924 1675 1064 1675ZM1106 1742 920 1742 920 1786 1106 1786Z" fill="#E2F0D9"/></g><g><path d="M1030 1519 993 1519 993 1564 1030 1564ZM1166 1630 1064 1630 1064 1675 1166 1675ZM1203 1742 1106 1742 1106 1786 1203 1786Z" fill="#A9D18E"/></g><g><path d="M1384 1519 1030 1519 1030 1564 1384 1564ZM1384 1630 1166 1630 1166 1675 1384 1675ZM1384 1742 1203 1742 1203 1786 1384 1786Z" fill="#70AD47"/></g><g><path d="M919.5 1485.5 919.5 1819.5" stroke="#D9D9D9" stroke-linejoin="round" stroke-miterlimit="10" fill="none" fill-rule="evenodd"/></g><g><text fill="#404040" font-family="Proxima Nova,Proxima Nova_MSFontService,Arial" font-weight="400" font-size="19" transform="translate(943.405 1548)">15%</text></g><g><text fill="#404040" font-family="Proxima Nova,Proxima Nova_MSFontService,Arial" font-weight="400" font-size="19" transform="translate(976.377 1659)">30%</text></g><g><text fill="#404040" font-family="Proxima Nova,Proxima Nova_MSFontService,Arial" font-weight="400" font-size="19" transform="translate(994.943 1770)">40%</text></g><g><text fill="#404040" font-family="Proxima Nova,Proxima Nova_MSFontService,Arial" font-weight="400" font-size="19" transform="translate(999.52 1548)">8%</text></g><g><text fill="#404040" font-family="Proxima Nova,Proxima Nova_MSFontService,Arial" font-weight="400" font-size="19" transform="translate(1097.04 1659)">22%</text></g><g><text fill="#404040" font-family="Proxima Nova,Proxima Nova_MSFontService,Arial" font-weight="400" font-size="19" transform="translate(1138.83 1770)">21%</text></g><g><text fill="#404040" font-family="Proxima Nova,Proxima Nova_MSFontService,Arial" font-weight="700" font-size="19" transform="translate(1189.91 1548)">77%</text></g><g><text fill="#404040" font-family="Proxima Nova,Proxima Nova_MSFontService,Arial" font-weight="700" font-size="19" transform="translate(1257.3 1659)">47%</text></g><g><text fill="#404040" font-family="Proxima Nova,Proxima Nova_MSFontService,Arial" font-weight="700" font-size="19" transform="translate(1275.38 1770)">39%</text></g><g><text fill="#595959" font-family="Proxima Nova,Proxima Nova_MSFontService,Arial" font-weight="400" font-size="19" transform="translate(774.204 1537)">Project-Based</text></g><g><text fill="#595959" font-family="Proxima Nova,Proxima Nova_MSFontService,Arial" font-weight="400" font-size="19" transform="translate(759.19 1558)">Rental Assistance</text></g><g><text fill="#595959" font-family="Proxima Nova,Proxima Nova_MSFontService,Arial" font-weight="400" font-size="19" transform="translate(773.044 1648)">Housing Choice</text></g><g><text fill="#595959" font-family="Proxima Nova,Proxima Nova_MSFontService,Arial" font-weight="400" font-size="19" transform="translate(799.227 1669)">Vouchers</text></g><g><text fill="#595959" font-family="Proxima Nova,Proxima Nova_MSFontService,Arial" font-weight="400" font-size="19" transform="translate(780.977 1770)">Public Housing</text></g><g><text fill="#595959" font-family="Proxima Nova,Proxima Nova_MSFontService,Arial" font-weight="700" font-size="24" transform="translate(814.276 1358)">Project</text></g><g><text fill="#595959" font-family="Proxima Nova,Proxima Nova_MSFontService,Arial" font-weight="700" font-size="24" transform="translate(891.096 1358)">-</text></g><g><text fill="#595959" font-family="Proxima Nova,Proxima Nova_MSFontService,Arial" font-weight="700" font-size="24" transform="translate(898.296 1358)">Based Rental Assistance Overwhelmingly </text></g><g><text fill="#595959" font-family="Proxima Nova,Proxima Nova_MSFontService,Arial" font-weight="700" font-size="24" transform="translate(814.276 1385)">Serves Older Adults in Los Angeles Metro Area</text></g><g><text fill="#595959" font-family="Proxima Nova,Proxima Nova_MSFontService,Arial" font-weight="400" font-size="21" transform="translate(814.276 1410)">Share of assisted households by age of household head </text></g><g><rect x="873" y="1434" width="10" height="10" fill="#C9C9C9"/></g><g><text fill="#595959" font-family="Proxima Nova,Proxima Nova_MSFontService,Arial" font-weight="400" font-size="19" transform="translate(887.214 1445)">24 or less</text></g><g><rect x="988" y="1434" width="9" height="10" fill="#E2F0D9"/></g><g><text fill="#595959" font-family="Proxima Nova,Proxima Nova_MSFontService,Arial" font-weight="400" font-size="19" transform="translate(1001.38 1445)">25 to 49</text></g><g><rect x="1091" y="1434" width="10" height="10" fill="#A9D18E"/></g><g><text fill="#595959" font-family="Proxima Nova,Proxima Nova_MSFontService,Arial" font-weight="400" font-size="19" transform="translate(1104.85 1445)">51 to 60</text></g><g><rect x="1191" y="1434" width="9" height="10" fill="#70AD47"/></g><g><text fill="#595959" font-family="Proxima Nova,Proxima Nova_MSFontService,Arial" font-weight="400" font-size="19" transform="translate(1204.69 1445)">62 or more</text></g><rect x="739.5" y="1326.5" width="684" height="594" stroke="#D9D9D9" stroke-linejoin="round" stroke-miterlimit="10" fill="none"/><g><text fill="#767171" font-family="Proxima Nova,Proxima Nova_MSFontService,Arial" font-weight="400" font-size="16" transform="translate(822.419 1860)">Note: Age categories determined by the older of the</text></g><g><text fill="#767171" font-family="Proxima Nova,Proxima Nova_MSFontService,Arial" font-weight="400" font-size="16" transform="translate(1192.69 1860)">household head </text></g><g><text fill="#767171" font-family="Proxima Nova,Proxima Nova_MSFontService,Arial" font-weight="400" font-size="16" transform="translate(822.419 1878)">or spouse.</text></g><g><g><text fill="#767171" font-family="Proxima Nova,Proxima Nova_MSFontService,Arial" font-weight="400" font-size="16" transform="translate(822.419 1896)">Source: 2023 HUD Picture of Subsidized Households</text></g></g></g></svg>